<svg width="18" height="16" viewBox="0 0 18 16" fill="none" xmlns="http://www.w3.org/2000/svg">
<g clip-path="url(#clip0_93_4)">
<path d="M15 6H11.4284L8.14406 0.251875C8.10026 0.175346 8.03702 0.111747 7.96075 0.0675164C7.88447 0.023286 7.79786 -5.52896e-06 7.70968 9.84476e-10L5.6628 9.84476e-10C5.33061 9.84476e-10 5.09093 0.317812 5.18218 0.637187L6.71437 6H3.49999L2.14998 4.2C2.05561 4.07406 1.90717 4 1.74998 4H0.500292C0.174979 4 -0.063772 4.30563 0.0152907 4.62125L0.99998 8L0.0152907 11.3787C-0.063772 11.6944 0.174979 12 0.500292 12H1.74998C1.90748 12 2.05561 11.9259 2.14998 11.8L3.49999 10H6.71437L5.18218 15.3625C5.09093 15.6819 5.33061 16 5.6628 16H7.70968C7.88906 16 8.05468 15.9038 8.14375 15.7481L11.4284 10H15C16.1047 10 18 9.10469 18 8C18 6.89531 16.1047 6 15 6Z" fill="#383838"/>
</g>
<defs>
<clipPath id="clip0_93_4">
<rect width="18" height="16" fill="white"/>
</clipPath>
</defs>
</svg>
